<svg version="1.1" id="Layer_1" xmlns="http://www.w3.org/2000/svg" xmlns:xlink="http://www.w3.org/1999/xlink" x="0px" y="0px"
	 width="100%" viewBox="0 0 384 624" enable-background="new 0 0 384 624" xml:space="preserve">
<path fill="#000000" opacity="1.000000" stroke="none" 
	d="
M1.000000,178.468658 
	C3.452767,163.066086 6.076287,148.179520 11.627672,133.987183 
	C30.762506,85.068253 62.951031,47.946934 110.640579,25.084433 
	C131.834961,14.923788 154.585556,9.590274 177.740585,6.709667 
	C232.782654,-0.137859 281.260590,16.027664 322.974457,51.692440 
	C355.891327,79.835915 374.083344,116.704048 381.515808,159.118286 
	C385.794342,183.534027 386.018219,207.736313 378.347229,231.610748 
	C378.152832,232.215729 377.864258,232.790421 377.649170,233.308136 
	C375.729187,233.294403 375.843628,231.931046 375.599487,230.841736 
	C371.816620,213.963074 366.317505,197.544647 356.160492,183.556396 
	C348.736237,173.331757 345.816284,162.042938 342.601501,150.348450 
	C332.451904,113.427223 308.709503,87.059074 276.126953,68.350761 
	C206.999054,28.658707 117.316406,45.926640 65.266541,105.826073 
	C48.109562,125.570473 38.970291,148.925400 35.231697,174.876617 
	C28.006859,225.027313 42.360451,269.996399 66.804649,312.699615 
	C77.803520,331.914276 89.811546,350.546936 96.519638,371.941559 
	C100.107376,383.384186 103.200539,394.919159 105.328690,406.698761 
	C106.123131,411.096130 107.619934,413.157623 112.696358,413.006042 
	C126.516182,412.593414 140.356567,412.891418 154.188553,412.839325 
	C156.124268,412.832031 158.182068,413.309570 159.951111,412.131073 
	C160.662598,410.752869 159.704361,409.848572 159.188858,408.861389 
	C136.958786,366.290222 138.259460,324.685333 163.864944,283.821289 
	C172.216827,270.492462 183.655167,260.583679 196.276886,251.701523 
	C201.589096,247.963226 206.974060,244.284042 211.965149,240.143112 
	C221.763596,232.013657 227.800659,221.835754 227.633026,208.667953 
	C227.601151,206.163025 227.221176,203.740204 225.545593,201.713089 
	C222.976334,201.882538 222.844193,204.024094 222.221359,205.607300 
	C216.991531,218.901199 207.840729,228.721619 196.587433,237.422195 
	C183.520477,247.525024 172.487183,259.891754 163.738510,274.048340 
	C161.371094,277.879150 159.129761,281.770355 156.284546,285.269836 
	C146.786255,296.952423 131.304672,298.199646 120.145889,288.126740 
	C110.150665,279.104187 106.206581,268.352600 109.886887,254.891800 
	C115.714706,233.576355 120.507874,211.999146 125.235748,190.413467 
	C126.509018,184.600204 125.252022,182.986237 119.494247,183.383148 
	C116.177742,183.611786 112.879425,184.103806 109.572708,184.475296 
	C108.136253,184.636688 106.449608,185.351227 105.898842,183.180542 
	C105.468117,181.482925 106.429245,180.440765 107.728790,179.439774 
	C109.815704,177.832336 112.357018,176.761383 114.516037,173.577988 
	C105.409454,174.020279 96.857521,175.259064 88.399017,173.663895 
	C88.738724,170.419403 90.817703,170.717072 92.245796,170.333694 
	C104.281700,167.102890 114.044556,160.453430 121.546898,150.601028 
	C133.430664,134.994781 147.308548,121.855858 165.612640,114.226311 
	C166.424850,101.181808 161.961823,89.636093 156.907501,77.910858 
	C167.622513,79.785797 175.354797,86.949188 184.890533,91.577148 
	C183.037964,83.703575 176.348389,79.893188 172.021515,73.941383 
	C175.994049,71.894455 179.564087,72.528419 183.045105,73.220093 
	C195.373199,75.669716 206.291199,81.247040 216.214325,88.791924 
	C218.764954,90.731247 220.736847,91.209068 224.152023,90.438622 
	C231.149948,88.859940 238.443954,90.001175 245.519440,90.964699 
	C282.978302,96.065750 311.469086,116.161644 334.637421,144.905884 
	C338.445526,149.630524 341.535400,154.861313 343.155548,161.089203 
	C331.041473,153.099762 319.086517,145.372345 304.078278,143.066956 
	C304.832611,146.007675 306.855682,146.335388 308.343964,147.178101 
	C345.695282,168.327637 365.741882,201.042114 372.365814,242.768616 
	C375.633362,263.351990 370.856293,282.776733 363.670380,301.773743 
	C356.867310,319.758667 347.112000,336.280273 337.516144,352.860229 
	C336.877136,353.964355 336.268494,355.198059 334.014282,355.509766 
	C334.014282,339.435852 334.014282,323.584137 334.014282,307.864532 
	C331.815033,307.289276 331.199371,308.597565 330.639557,309.409821 
	C317.235657,328.858734 298.545074,342.530975 279.939301,356.394379 
	C264.863983,367.627136 249.372238,378.387604 236.266617,392.081085 
	C232.747986,395.757599 229.968597,399.784607 227.736252,404.294556 
	C227.038712,405.703796 226.850464,407.592438 224.218796,408.300995 
	C220.127197,394.996490 220.054672,381.490692 221.366989,367.784546 
	C213.613907,380.830048 208.380951,394.740509 205.398819,409.473328 
	C203.753540,417.601562 202.851898,425.885315 198.793747,433.364410 
	C196.944122,436.773285 194.617630,438.419464 190.503326,438.399719 
	C159.506592,438.250793 128.508804,438.328522 97.511398,438.297821 
	C91.186623,438.291565 89.803398,437.182709 88.527374,430.776215 
	C85.411514,415.132538 82.718201,399.386932 77.003578,384.394348 
	C66.737083,357.459808 52.482941,332.558044 36.421677,308.832184 
	C19.763216,284.224182 9.041940,257.570587 4.002558,228.473831 
	C2.814223,221.612518 2.137868,214.662521 1.112994,207.376663 
	C1.000000,197.645767 1.000000,188.291550 1.000000,178.468658 
M224.157532,332.705017 
	C220.636169,331.469788 216.790771,330.874786 218.126038,325.228607 
	C218.560242,323.392548 216.130798,321.779541 213.865326,323.819794 
	C213.030640,324.571503 212.764297,325.913971 211.447739,326.192841 
	C206.384491,322.099304 205.920303,320.401062 208.915863,314.939148 
	C212.228943,308.898254 214.899292,302.688721 215.405716,295.707520 
	C215.594315,293.107544 215.646378,290.486053 212.949661,289.203064 
	C210.270096,287.928223 208.178268,289.583649 206.275528,291.320068 
	C204.628494,292.823151 203.700256,294.795013 202.858337,296.789642 
	C200.833191,301.587341 199.783264,306.651581 199.404480,311.804474 
	C198.822937,319.715363 194.249603,325.338623 186.548096,326.995636 
	C182.641815,327.836029 179.792160,325.906281 177.437408,323.072968 
	C175.348022,320.558960 175.450287,318.007629 177.279556,315.297119 
	C181.278336,309.372040 182.867752,302.528900 184.325043,295.684265 
	C184.909393,292.939728 185.624512,289.679382 182.194946,288.282928 
	C179.150558,287.043335 177.356216,289.667511 175.568710,291.580688 
	C174.786560,292.417816 174.240753,293.490143 173.656998,294.495941 
	C170.022018,300.759064 169.002716,307.587646 169.289871,314.706970 
	C169.420410,317.943634 169.136917,321.021881 165.569809,322.506256 
	C163.859695,321.693726 163.299988,318.972443 160.993210,319.877533 
	C158.476151,320.865204 159.265579,323.220062 159.334381,325.107208 
	C159.426437,327.631775 158.213394,329.135437 156.133698,330.262512 
	C154.842239,330.962433 153.194855,331.719849 153.994003,333.615143 
	C154.776749,335.471588 156.334641,335.746124 158.165848,334.971741 
	C160.873108,333.826904 162.221832,334.752411 162.433685,337.713959 
	C162.551010,339.354156 163.078003,340.962982 163.391724,342.591461 
	C167.346802,363.123230 170.607101,383.805969 176.408066,403.937927 
	C177.113220,406.385132 177.156052,410.959015 180.669266,410.112366 
	C184.338715,409.228149 182.633392,405.110779 182.048370,402.337646 
	C177.179428,379.258270 172.246582,356.192322 167.271652,333.135529 
	C166.781631,330.864441 166.477463,328.699982 168.743179,327.366974 
	C170.986206,326.047302 172.535110,327.910889 173.953079,329.181976 
	C178.208923,332.996887 182.989456,334.882050 188.633545,333.216400 
	C192.185547,332.168121 195.162704,329.957703 198.040115,327.646545 
	C199.163101,326.744568 200.264969,325.535278 202.021149,326.289551 
	C205.652802,327.849426 209.670090,335.791901 208.547379,339.640930 
	C202.354416,360.872498 197.593094,382.516022 190.202148,403.403809 
	C189.509216,405.362061 187.956741,408.117737 190.689240,409.075104 
	C193.635147,410.107239 194.243210,406.968018 195.039841,404.817139 
	C195.271255,404.192383 195.578278,403.591736 195.765381,402.954956 
	C201.531158,383.333466 207.338440,363.723846 212.996521,344.071289 
	C214.054382,340.396942 215.502701,337.838654 219.792450,337.284424 
	C221.817734,337.022797 225.067139,336.854095 224.157532,332.705017 
z"/>
<path fill="#000000" opacity="1.000000" stroke="none" 
	d="
M152.468658,625.000000 
	C148.410187,622.336060 144.667969,619.851074 141.271759,616.959717 
	C137.593002,613.827759 134.544495,610.138916 134.025009,605.073730 
	C135.813538,603.198608 137.923218,603.723938 139.832199,603.721802 
	C171.781982,603.686218 203.731842,603.684204 235.681641,603.708679 
	C242.575241,603.713928 243.334549,605.154480 240.023193,611.284241 
	C236.717285,617.403870 231.417740,621.303589 225.266907,624.795227 
	C200.979111,625.000000 176.958206,625.000000 152.468658,625.000000 
z"/>
<path fill="#000000" opacity="1.000000" stroke="none" 
	d="
M292.350983,402.326843 
	C278.981750,421.132996 270.961212,441.730011 267.546478,464.113342 
	C266.721893,469.518311 266.649811,475.045685 266.380890,480.524078 
	C266.273560,482.711304 265.907715,484.714050 265.080994,486.787567 
	C262.370544,493.585938 257.795807,495.905731 250.342438,495.565521 
	C236.051224,494.913177 221.709320,495.391174 207.388535,495.357391 
	C201.131973,495.342621 197.797058,492.470215 197.746613,487.200989 
	C197.693237,481.625000 201.038483,478.676422 207.554535,478.657837 
	C218.045319,478.627930 228.536423,478.684692 239.027023,478.630066 
	C247.349014,478.586700 248.852936,477.197968 249.606583,469.086243 
	C253.027054,432.270966 267.915894,400.705078 293.164856,373.880035 
	C294.191071,372.789795 295.226135,371.693420 296.363373,370.724701 
	C300.363251,367.317719 304.996918,367.418335 308.443726,370.920929 
	C311.985199,374.519806 312.313660,379.128143 308.655304,382.976074 
	C302.907043,389.022308 297.487000,395.312622 292.350983,402.326843 
z"/>
<path fill="#000000" opacity="1.000000" stroke="none" 
	d="
M120.803329,587.045166 
	C119.594353,571.935242 121.405563,570.513672 134.561691,570.593201 
	C170.035187,570.807556 205.510834,570.666077 240.985626,570.665649 
	C243.815460,570.665588 246.607117,570.759766 249.412399,571.402588 
	C257.328033,573.216431 259.061768,575.602905 258.179413,584.035034 
	C257.558899,589.964844 254.622864,592.291809 247.340485,592.297302 
	C208.368500,592.326843 169.396469,592.294250 130.424500,592.333801 
	C126.315384,592.337952 122.814896,591.488403 120.803329,587.045166 
z"/>
<path fill="#000000" opacity="1.000000" stroke="none" 
	d="
M98.078766,495.318787 
	C89.897034,495.297913 89.897141,495.297913 89.881622,487.655487 
	C89.865067,479.505585 90.032600,471.349487 89.758423,463.208252 
	C89.608047,458.743011 91.374130,457.356140 95.630653,457.588165 
	C100.771431,457.868408 105.941574,457.563232 111.094200,457.696716 
	C113.033035,457.746948 116.006485,456.769928 116.065079,460.157013 
	C116.127983,463.792847 112.981384,462.939941 110.860756,463.049042 
	C107.376549,463.228241 103.872169,463.246948 100.386124,463.100067 
	C96.053177,462.917480 96.247429,465.772247 96.163727,468.741364 
	C96.076027,471.852386 96.682755,473.924713 100.496185,473.686920 
	C103.975166,473.469971 107.480125,473.598145 110.971199,473.679138 
	C112.551521,473.715790 114.662987,473.365509 114.726158,475.818604 
	C114.796295,478.542175 112.569206,478.322510 110.773117,478.354065 
	C107.281311,478.415558 103.779121,478.533691 100.297089,478.341370 
	C95.807571,478.093384 96.170792,481.113159 96.202370,483.985992 
	C96.233025,486.774475 95.607025,489.923645 100.165924,489.752838 
	C104.317703,489.597290 108.480797,489.722443 112.638588,489.759399 
	C114.386070,489.774933 116.049728,490.000488 116.156120,492.313110 
	C116.275909,494.916840 114.520363,495.259338 112.536507,495.271027 
	C107.879585,495.298492 103.222527,495.302948 98.078766,495.318787 
z"/>
<path fill="#000000" opacity="1.000000" stroke="none" 
	d="
M70.170418,463.062561 
	C65.496246,462.599548 63.763416,464.244781 63.815575,468.697174 
	C63.868553,473.220276 66.117889,473.928497 69.805367,473.684143 
	C72.450272,473.508881 75.117790,473.664368 77.775040,473.690094 
	C79.272987,473.704590 80.354965,474.145386 80.282707,475.972504 
	C80.214798,477.689545 79.229034,478.291473 77.708443,478.310242 
	C74.719490,478.347107 71.721535,478.497894 68.743172,478.326202 
	C65.362129,478.131317 63.808613,479.448517 63.911377,482.898499 
	C64.000275,485.882935 63.896568,488.877258 63.769638,491.862610 
	C63.682182,493.919434 62.854206,495.400269 60.423904,495.208710 
	C58.235302,495.036194 57.755886,493.539459 57.753056,491.728058 
	C57.737206,481.596619 57.758888,471.465118 57.723911,461.333801 
	C57.715416,458.872467 58.740257,457.659668 61.284882,457.677917 
	C67.263725,457.720856 73.243324,457.654877 79.222275,457.689941 
	C80.878296,457.699677 82.789383,457.656708 82.868362,460.038147 
	C82.953285,462.598572 80.981911,462.893219 79.105385,462.971039 
	C76.285980,463.087921 73.459785,463.041077 70.170418,463.062561 
z"/>
<path fill="#000000" opacity="1.000000" stroke="none" 
	d="
M123.825760,478.996765 
	C123.827324,473.175812 123.788956,467.853394 123.850449,462.532135 
	C123.874718,460.431946 123.485085,457.902832 126.767548,457.791382 
	C130.385712,457.668518 130.060059,460.418640 130.085815,462.680481 
	C130.171097,470.163666 130.246750,477.649994 130.110687,485.131226 
	C130.048172,488.569519 131.339951,489.949493 134.799316,489.766052 
	C138.447189,489.572693 142.114410,489.706207 145.772339,489.757355 
	C147.578201,489.782562 149.121780,490.300659 149.157669,492.517181 
	C149.194168,494.770325 147.669342,495.264740 145.838531,495.269409 
	C139.685547,495.285095 133.532440,495.257141 127.379486,495.275177 
	C124.788338,495.282776 123.868340,493.807343 123.858742,491.469635 
	C123.842361,487.478394 123.836258,483.487061 123.825760,478.996765 
z"/>
<path fill="#000000" opacity="1.000000" stroke="none" 
	d="
M157.099319,457.993652 
	C160.979950,457.304688 161.364273,459.421509 161.350143,462.063263 
	C161.309143,469.727722 161.462738,477.395294 161.291000,485.056061 
	C161.214676,488.460388 162.310944,489.956879 165.857590,489.770203 
	C169.678802,489.569122 173.519577,489.740326 177.351807,489.747437 
	C179.210236,489.750885 180.728256,490.261902 180.758255,492.463806 
	C180.787979,494.647369 179.342606,495.265900 177.449997,495.268066 
	C171.285339,495.275116 165.120636,495.293762 158.956055,495.276001 
	C157.327087,495.271301 155.781189,494.775757 155.813736,492.852478 
	C156.009613,481.278839 154.450195,469.660370 157.099319,457.993652 
z"/>
<path fill="#000000" opacity="1.000000" stroke="none" 
	d="
M311.544342,542.607056 
	C314.417419,541.722229 316.409271,540.448120 316.431000,537.576477 
	C314.964111,534.783447 310.300995,538.140991 309.687378,533.517029 
	C313.234894,532.127441 317.753235,531.372253 319.976898,533.536072 
	C322.979492,536.457947 321.069916,541.294556 320.941864,545.950806 
	C316.597046,544.033997 313.049042,546.704895 309.142792,546.385986 
	C303.976471,545.964172 300.221832,543.175964 298.678833,537.974670 
	C296.996857,532.304932 298.788391,525.561890 302.793518,522.487183 
	C306.597595,519.566833 313.000153,519.370422 316.908752,522.059998 
	C318.165253,522.924561 319.197601,524.000549 319.800964,525.417419 
	C320.275604,526.532166 320.562744,527.780701 319.443848,528.605469 
	C318.299347,529.449219 317.217468,528.905396 316.465149,527.834351 
	C313.713531,523.916931 309.996063,522.957520 306.057739,525.378723 
	C302.163300,527.772827 301.715698,532.036011 302.589172,536.076538 
	C303.526398,540.411865 306.305298,543.077820 311.544342,542.607056 
z"/>
<path fill="#000000" opacity="1.000000" stroke="none" 
	d="
M92.978378,539.998413 
	C90.656883,536.539795 88.530304,533.386902 86.403725,530.234009 
	C86.019669,530.271484 85.635605,530.309021 85.251549,530.346497 
	C85.251549,534.337585 85.296822,538.329407 85.229576,542.319336 
	C85.202164,543.946167 85.307388,546.016418 82.849800,545.841736 
	C80.871765,545.701233 80.847054,543.880615 80.834618,542.390381 
	C80.786095,536.572327 80.762596,530.753357 80.820686,524.935669 
	C80.836441,523.358154 80.500252,521.422485 82.769363,520.906128 
	C84.724495,520.461182 85.894737,521.661682 86.861465,523.095337 
	C90.103813,527.903748 93.321030,532.729065 97.021935,538.255859 
	C98.200638,533.170471 97.336624,528.799500 97.688972,524.513000 
	C97.801407,523.145081 97.288361,521.065674 99.536507,521.136230 
	C101.676079,521.203369 101.293663,523.225830 101.309525,524.621338 
	C101.373756,530.272888 101.386963,535.926208 101.310814,541.577454 
	C101.289879,543.131470 101.890633,545.138916 99.826050,545.910034 
	C97.645874,546.724365 96.479263,545.201782 95.442490,543.584045 
	C94.725571,542.465454 93.932396,541.395752 92.978378,539.998413 
z"/>
<path fill="#000000" opacity="1.000000" stroke="none" 
	d="
M165.413025,534.450195 
	C166.475662,535.605957 166.612457,537.203125 168.685852,537.545471 
	C168.685852,532.970886 168.647949,528.530762 168.709915,524.092163 
	C168.727554,522.828003 168.581100,521.091431 170.501236,521.144958 
	C172.329926,521.195801 172.265732,522.876587 172.275635,524.170776 
	C172.322769,530.326599 172.324738,536.483093 172.292145,542.639038 
	C172.285263,543.939453 172.380112,545.445129 170.721039,545.939697 
	C169.005737,546.450989 167.841904,545.484619 166.949707,544.179138 
	C163.777023,539.537048 160.636429,534.872986 156.207474,530.394104 
	C156.207474,534.257874 156.252655,538.122375 156.185791,541.984985 
	C156.158051,543.586548 156.409729,545.739624 154.044495,545.760437 
	C151.719315,545.780945 151.810318,543.669006 151.794434,542.040222 
	C151.737625,536.217163 151.740204,530.393127 151.780212,524.569885 
	C151.790161,523.122009 151.571487,521.420410 153.558655,520.926880 
	C155.228683,520.512085 156.515976,521.266174 157.422714,522.584717 
	C160.060287,526.420349 162.635925,530.298645 165.413025,534.450195 
z"/>
<path fill="#000000" opacity="1.000000" stroke="none" 
	d="
M125.050140,541.266296 
	C126.356499,539.955017 127.468803,538.907654 127.069595,537.182129 
	C125.329460,535.020264 121.451454,537.912354 120.213043,533.980225 
	C123.298065,531.685242 127.757545,531.581909 129.800476,533.310303 
	C133.342972,536.307251 130.857483,541.219238 131.230423,546.081360 
	C128.386475,544.656006 126.364494,545.267944 124.136803,545.967957 
	C118.769417,547.654602 113.765800,545.745056 110.927002,541.484924 
	C107.656502,536.576904 108.036972,528.707886 111.766769,524.116760 
	C114.771004,520.418762 120.486198,519.050049 125.453751,521.023865 
	C126.801376,521.559265 128.196045,522.414368 129.104279,523.508545 
	C130.281418,524.926636 132.356888,526.845703 130.313004,528.617615 
	C128.352005,530.317627 127.313698,527.988342 126.107887,526.632507 
	C122.630249,522.722229 116.731895,523.324158 114.449059,527.987366 
	C112.446808,532.077454 112.210014,536.454895 115.299530,540.187195 
	C117.893387,543.320679 121.277832,543.433044 125.050140,541.266296 
z"/>
<path fill="#000000" opacity="1.000000" stroke="none" 
	d="
M250.270325,543.342285 
	C250.420822,545.352417 249.824539,546.408813 248.046707,546.048035 
	C245.959427,545.624390 245.717880,543.843445 245.744232,542.160461 
	C245.813889,537.712524 243.978973,535.340942 239.264587,535.339661 
	C236.333588,535.338867 234.898071,536.368652 235.073547,539.391846 
	C235.140533,540.546082 235.072357,541.716309 234.968231,542.870361 
	C234.829010,544.412964 234.533417,546.043579 232.488708,545.869385 
	C230.690598,545.716187 230.724365,544.112915 230.717224,542.809509 
	C230.682693,536.507507 230.696213,530.205078 230.722214,523.902954 
	C230.727905,522.523376 230.968491,521.000061 232.655533,520.915344 
	C237.097382,520.692261 241.629089,519.875732 245.947266,521.469299 
	C249.360626,522.729004 251.365906,525.889771 250.005890,528.977356 
	C247.826187,533.925903 249.890808,538.325562 250.270325,543.342285 
M244.138611,530.974060 
	C245.749054,529.600647 246.270157,527.868713 244.966599,526.172668 
	C243.047821,523.676208 240.171448,524.492981 237.579559,524.533508 
	C235.213654,524.570435 235.116714,526.294067 235.128525,528.028198 
	C235.140305,529.756897 235.282990,531.544006 237.548645,531.632446 
	C239.511887,531.709167 241.487610,531.466919 244.138611,530.974060 
z"/>
<path fill="#000000" opacity="1.000000" stroke="none" 
	d="
M180.804535,539.852905 
	C180.805481,534.550354 180.871246,529.726990 180.780151,524.906494 
	C180.725784,522.029602 181.778931,520.559082 184.841019,520.663574 
	C188.495056,520.788208 192.156158,520.692932 195.813644,520.737427 
	C197.045929,520.752441 198.226273,521.070312 198.217865,522.618164 
	C198.208939,524.261230 196.890808,524.297485 195.720413,524.349548 
	C193.230042,524.460205 190.737946,524.542480 188.245682,524.595276 
	C186.169220,524.639282 185.295456,525.642456 185.330246,527.726868 
	C185.364792,529.797546 186.284286,530.804993 188.328354,530.838440 
	C188.993256,530.849304 189.681274,530.766663 190.318588,530.907898 
	C192.682877,531.431641 196.996689,529.453369 196.976929,532.908203 
	C196.953918,536.933716 192.494446,534.452271 190.071823,535.148010 
	C189.608124,535.281128 189.079178,535.206238 188.580917,535.196777 
	C186.264847,535.152588 185.335129,536.322998 185.328690,538.588928 
	C185.322113,540.902100 186.393234,541.928894 188.633621,541.972473 
	C191.125259,542.020935 193.619400,542.067139 196.105331,542.225952 
	C197.301086,542.302368 198.481125,542.725403 198.559631,544.199402 
	C198.641693,545.740051 197.498581,546.187317 196.262543,546.198914 
	C192.107681,546.237976 187.936478,546.407043 183.801254,546.111145 
	C180.096466,545.845947 180.979095,542.701843 180.804535,539.852905 
z"/>
<path fill="#000000" opacity="1.000000" stroke="none" 
	d="
M210.311523,538.133911 
	C210.115204,541.235840 211.694153,541.978333 214.034744,541.986389 
	C216.364441,541.994385 218.697861,542.036072 221.021606,542.187073 
	C222.250473,542.266907 223.331573,542.790466 223.290070,544.303040 
	C223.256775,545.516724 222.433517,546.125488 221.341446,546.135376 
	C217.015854,546.174194 212.686234,546.223633 208.364868,546.073914 
	C206.231659,546.000000 205.754837,544.276917 205.747818,542.482849 
	C205.723740,536.320374 205.746155,530.157654 205.735672,523.995056 
	C205.731781,521.708374 206.870316,520.687134 209.126312,520.704834 
	C212.790329,520.733704 216.455261,520.666443 220.118881,520.712830 
	C221.407364,520.729126 223.114792,520.577637 223.154007,522.453064 
	C223.202194,524.756836 221.220291,524.274292 219.833221,524.355530 
	C218.006287,524.462463 216.169937,524.435181 214.337936,524.422485 
	C212.128830,524.407104 210.360382,524.812073 210.288239,527.602173 
	C210.215561,530.413025 211.928558,530.915894 214.173599,530.886902 
	C214.673172,530.880432 215.190186,530.808044 215.669724,530.907654 
	C217.873779,531.365540 221.711105,529.711304 221.720535,533.149109 
	C221.728699,536.133423 218.027176,534.777039 215.911301,535.118042 
	C214.769089,535.302063 213.581100,535.185181 212.428238,535.324158 
	C211.063187,535.488770 210.470596,536.436707 210.311523,538.133911 
z"/>
<path fill="#000000" opacity="1.000000" stroke="none" 
	d="
M272.592285,520.910278 
	C276.671265,521.919067 277.474518,525.496338 279.355804,528.099487 
	C281.581512,531.179199 283.677368,534.352661 286.679810,538.723206 
	C286.679810,533.052979 286.640839,528.675354 286.704529,524.299194 
	C286.722656,523.054688 286.442688,521.297852 288.283905,521.160889 
	C290.575684,520.990356 290.268280,522.974854 290.284058,524.362732 
	C290.351959,530.340576 290.356079,536.319946 290.301575,542.297974 
	C290.288727,543.706604 290.631287,545.482910 288.599152,545.951904 
	C286.824646,546.361389 285.792877,545.125122 284.950592,543.885803 
	C281.802856,539.254517 278.725342,534.575623 275.621490,529.914551 
	C275.185547,530.004761 274.749573,530.095032 274.313629,530.185242 
	C274.313629,534.229858 274.361938,538.275452 274.287323,542.318665 
	C274.261353,543.725647 274.545258,545.777405 272.413239,545.717773 
	C270.295013,545.658569 270.708862,543.589844 270.694214,542.207397 
	C270.630829,536.229492 270.648987,530.250305 270.694427,524.271973 
	C270.704102,523.001160 270.484802,521.521545 272.592285,520.910278 
z"/>
<path fill="#000000" opacity="1.000000" stroke="none" 
	d="
M56.625671,540.870789 
	C56.624310,535.401001 56.788204,530.411438 56.566502,525.439026 
	C56.398998,521.682312 57.968925,520.393250 61.552452,520.634460 
	C64.528694,520.834900 67.530647,520.620850 70.516769,520.721680 
	C71.903687,520.768494 73.896591,520.432617 73.807404,522.676819 
	C73.734856,524.502258 71.985504,524.289062 70.716141,524.349182 
	C68.560768,524.451233 66.398575,524.492859 64.241402,524.450439 
	C61.840744,524.403381 60.450718,525.291382 60.445362,527.890503 
	C60.440102,530.444214 62.084347,530.835327 64.089317,530.874084 
	C66.246338,530.915771 68.408157,530.908203 70.557594,531.064026 
	C71.735123,531.149414 72.941025,531.564209 72.960930,533.059814 
	C72.981140,534.578613 71.798431,534.970093 70.593140,535.035156 
	C68.273605,535.160278 65.947433,535.162048 63.624054,535.216492 
	C61.314598,535.270691 60.454010,536.583130 60.407555,538.753784 
	C60.356255,541.151184 61.653824,541.985168 63.819965,541.992920 
	C65.978638,542.000610 68.145859,541.925110 70.292953,542.094055 
	C71.842384,542.216064 74.112198,541.990112 73.914413,544.401428 
	C73.723572,546.728088 71.493515,546.210632 69.938438,546.262024 
	C67.118263,546.355164 64.284050,546.144897 61.471535,546.318298 
	C57.804108,546.544373 56.211735,544.994934 56.625671,540.870789 
z"/>
<path fill="#000000" opacity="1.000000" stroke="none" 
	d="
M257.905457,543.526855 
	C257.822083,537.080078 257.758270,531.080261 257.816315,525.081543 
	C257.833038,523.352661 257.445648,520.981934 260.215454,521.027527 
	C262.690491,521.068237 262.260162,523.265564 262.276611,524.818054 
	C262.340027,530.817017 262.313843,536.817322 262.269653,542.816772 
	C262.261322,543.949036 262.321716,545.272583 260.929749,545.761169 
	C259.296082,546.334656 258.447266,545.417236 257.905457,543.526855 
z"/>
<path fill="#000000" opacity="1.000000" stroke="none" 
	d="
M140.983856,545.671875 
	C138.628952,537.971558 139.973251,530.333374 139.838409,522.747498 
	C139.818817,521.645203 140.575287,520.952332 141.793091,520.980896 
	C142.747101,521.003235 143.548508,521.523254 143.601227,522.373840 
	C144.072433,529.976440 144.816742,537.597168 143.074600,545.138855 
	C142.994125,545.487244 141.965683,545.616577 140.983856,545.671875 
z"/>
<path fill="#000000" opacity="1.000000" stroke="none" 
	d="
M177.359833,296.878418 
	C178.122757,295.877563 179.369690,294.560974 179.303101,296.427765 
	C179.159042,300.466125 177.601028,304.213318 174.708786,308.784973 
	C173.824188,303.512756 176.403687,300.557007 177.359833,296.878418 
z"/>
<path fill="#000000" opacity="1.000000" stroke="none" 
	d="
M208.328186,304.828735 
	C207.889008,306.061554 207.695267,307.141388 205.868835,306.738159 
	C206.146713,302.425232 207.283859,298.448822 210.270081,293.930634 
	C211.568405,298.539215 209.052490,301.339844 208.328186,304.828735 
z"/>
</svg>