<svg version="1.1" id="Layer_1" xmlns="http://www.w3.org/2000/svg" xmlns:xlink="http://www.w3.org/1999/xlink" x="0px" y="0px"
	 width="100%" viewBox="0 0 688 1092" enable-background="new 0 0 688 1092" xml:space="preserve">

<path fill="#FEFEFE" opacity="1.000000" stroke="none" 
	d="
M563.470581,85.478012 
	C575.220337,96.560654 587.393921,106.762863 598.069519,118.345802 
	C620.963867,143.186127 638.670105,171.553726 652.425171,202.432098 
	C662.498413,225.045319 670.224915,248.420822 675.076111,272.645630 
	C677.647522,285.486420 679.004395,298.595459 680.405457,311.637543 
	C681.502197,321.846649 682.494690,332.147858 682.360229,342.392761 
	C681.991516,370.476807 676.987183,397.817047 667.436951,424.274078 
	C666.804810,426.025299 665.868774,427.666809 664.452759,430.682770 
	C662.261963,420.718872 660.344055,412.260468 658.547791,403.776306 
	C653.382263,379.378235 643.553223,356.898621 630.717896,335.632935 
	C627.242554,329.875122 623.578613,324.187561 620.684021,318.140930 
	C619.189087,315.017944 618.966492,311.204376 618.554077,307.658051 
	C616.066650,286.268768 609.990845,265.852417 602.815552,245.615326 
	C593.843384,220.310211 578.299866,199.380493 561.276062,179.152084 
	C527.524841,139.047363 484.221924,113.696205 435.108093,97.777000 
	C419.309662,92.656281 402.647552,89.919220 386.199463,87.178589 
	C374.486145,85.226883 362.468079,84.328545 350.589233,84.355957 
	C337.713898,84.385658 324.832001,85.913155 311.971466,87.005211 
	C292.593628,88.650665 273.782898,93.142593 255.299973,99.008591 
	C218.492020,110.690483 185.327225,129.053375 154.922470,152.857712 
	C129.780777,172.541534 109.291840,196.163300 92.888306,223.314438 
	C80.275360,244.191406 71.731216,266.932983 67.683624,290.957611 
	C64.218689,311.523834 61.589527,332.320099 60.243500,353.121582 
	C59.398682,366.177399 61.240921,379.467529 62.555721,392.584564 
	C63.709435,404.094482 64.921448,415.726196 67.657135,426.925659 
	C75.475067,458.931061 86.153229,489.918121 100.180542,519.891357 
	C110.394890,541.717041 123.179024,561.950256 135.406982,582.500610 
	C156.307922,617.626709 172.461334,654.563171 182.118423,694.253906 
	C185.357346,707.565857 187.555801,721.131042 190.270340,734.784180 
	C223.537308,734.784180 257.113190,734.784180 291.366150,734.784180 
	C290.350433,732.957947 289.719238,731.486267 288.801331,730.222900 
	C274.284882,710.243530 267.113403,687.489258 262.332001,663.535522 
	C258.666351,645.171631 257.878113,626.759094 258.624207,608.254211 
	C259.542236,585.484558 264.536102,563.675720 273.974670,542.657166 
	C282.656769,523.323181 293.173584,505.157166 305.968628,488.508392 
	C317.368225,473.675385 331.706024,461.615570 347.239502,450.917389 
	C360.993805,441.444580 375.010193,431.925446 387.002838,420.435272 
	C400.403931,407.595703 407.574860,390.807220 406.393890,371.626007 
	C405.918182,363.899506 404.149628,356.252594 401.957642,348.555573 
	C398.781952,356.489655 396.050415,364.638275 392.342712,372.315430 
	C383.218475,391.208191 370.544617,406.865814 352.923553,419.077087 
	C341.860870,426.743439 332.654053,437.252960 323.239868,447.085541 
	C314.198792,456.528473 305.453461,466.354889 297.545013,476.748444 
	C291.820679,484.271545 288.362396,493.516052 282.656464,501.056824 
	C275.303589,510.773956 267.135590,520.428955 254.014618,522.375488 
	C240.930862,524.316650 228.949265,522.791382 217.907761,513.395081 
	C207.098831,504.196747 199.875854,493.549377 196.108414,480.170105 
	C193.783813,471.914734 195.863098,463.956787 197.840805,456.041595 
	C202.533997,437.258636 207.642471,418.575653 212.083160,399.734467 
	C217.161636,378.187195 221.810089,356.535767 226.363266,334.870270 
	C227.130524,331.219482 226.471558,327.268921 226.471558,323.939056 
	C214.559799,325.570312 202.784836,327.182831 191.325348,328.752167 
	C189.380798,323.908997 191.231979,322.300781 194.386322,320.390625 
	C202.661255,315.379669 210.570496,309.764801 218.043930,303.748474 
	C208.047882,305.831604 198.084473,309.488129 188.049515,309.696381 
	C160.360809,310.271057 160.462036,311.159668 158.174164,306.634399 
	C180.152603,303.244354 198.326004,292.695160 213.285645,276.582153 
	C220.122208,269.218536 226.241165,261.181702 232.580826,253.365219 
	C244.317078,238.895050 258.356445,227.046356 274.079254,217.209244 
	C293.048340,205.341080 313.764160,198.227234 336.001831,195.432526 
	C322.642181,194.932526 309.704773,196.748978 296.510651,202.860031 
	C296.510651,199.797195 296.492310,197.737259 296.513519,195.677719 
	C296.703583,177.226456 290.217865,160.716339 281.820862,144.734100 
	C281.139099,143.436447 281.178772,141.759766 280.883179,140.259216 
	C282.285828,140.267822 283.955048,139.778885 285.048370,140.364731 
	C292.885315,144.564026 300.684784,148.846970 308.340668,153.366684 
	C316.678314,158.288849 324.848206,163.495117 334.198578,169.260254 
	C329.334778,153.810501 318.719330,143.725891 307.425262,132.934357 
	C316.855164,130.836746 324.505280,132.368088 331.886383,134.284576 
	C352.952271,139.754257 371.921509,149.710098 388.503601,163.701065 
	C400.903198,174.163116 412.488953,185.589676 425.000610,197.105408 
	C419.832336,181.954605 408.553497,172.650223 395.366425,163.198563 
	C429.121765,162.151886 460.749908,165.164536 490.653534,178.649750 
	C542.470337,202.016830 583.705017,237.150986 611.600220,287.005127 
	C611.273071,287.465881 610.945923,287.926636 610.618774,288.387390 
	C608.667480,287.171387 606.532227,286.173401 604.793152,284.705963 
	C585.283264,268.243622 562.624084,258.472595 537.901917,253.066711 
	C535.500610,252.541641 533.035034,252.262405 530.583984,252.029831 
	C528.934570,251.873291 527.258301,252.000000 526.118774,252.000000 
	C538.363953,259.061340 551.264343,265.841492 563.472107,273.698120 
	C580.863159,284.890625 596.264160,298.680542 610.415771,313.694305 
	C615.992004,319.610321 620.322998,326.800415 624.671082,333.754272 
	C636.098083,352.029663 645.432190,371.365387 651.462463,392.088715 
	C658.628479,416.715210 664.762573,441.654633 662.381592,467.604919 
	C660.439331,488.774048 655.277832,509.275635 647.853516,529.262024 
	C636.531006,559.742188 621.274780,588.236145 605.021301,616.261719 
	C602.549194,620.524231 600.038574,624.765320 597.473755,628.972412 
	C596.938049,629.851196 596.084229,630.535889 594.625916,632.132202 
	C594.625916,601.302124 594.625916,571.589661 594.625916,541.877197 
	C594.281067,541.702698 593.936157,541.528198 593.591309,541.353699 
	C590.352234,545.287231 587.153015,549.254333 583.866089,553.147400 
	C576.224670,562.197754 568.763916,571.413574 560.829163,580.200378 
	C543.283203,599.630676 521.857056,614.490112 501.124664,630.147034 
	C480.647888,645.611023 459.768738,660.573975 439.807129,676.675415 
	C429.406799,685.064514 420.140656,695.026123 411.285217,705.089661 
	C407.220703,709.708618 405.351929,716.270081 402.549530,721.981140 
	C401.932648,723.238281 401.579254,724.624756 400.587708,727.396057 
	C394.340820,711.745300 394.632660,696.564575 394.822723,681.788757 
	C395.012451,667.042725 397.735809,652.329346 399.491974,636.290344 
	C384.187378,667.678772 369.415222,698.163452 363.764252,733.384521 
	C370.086975,732.888000 375.303802,732.204346 380.530029,732.122681 
	C392.860107,731.930054 405.197479,731.860901 417.526093,732.075562 
	C423.176849,732.173950 424.884277,737.054504 426.404236,741.307007 
	C430.099121,751.644531 428.270966,761.972778 425.879425,772.300049 
	C424.897278,776.541199 422.290375,777.058472 418.577057,777.052795 
	C365.744934,776.972351 312.912628,776.997925 260.080383,776.997925 
	C231.414276,776.997925 202.744034,776.725647 174.084595,777.163208 
	C165.447998,777.295166 161.044327,772.908264 159.529526,764.448059 
	C156.884140,749.673401 154.869095,734.738647 151.288589,720.191345 
	C147.396713,704.378906 143.229309,688.428650 136.992584,673.450073 
	C128.866592,653.934021 119.374580,634.872620 109.026527,616.425537 
	C97.003319,594.992249 83.839050,574.160461 70.408340,553.564331 
	C50.919041,523.677307 33.052006,492.976196 23.456350,458.388733 
	C17.786177,437.950623 13.762440,417.033234 9.553838,396.219055 
	C5.970309,378.496246 4.049718,360.494446 4.576210,342.391296 
	C5.731798,302.657104 13.688169,264.379120 29.140442,227.610092 
	C41.200817,198.912170 56.649899,172.265106 75.637337,147.704575 
	C90.302368,128.735153 106.969078,111.623940 124.947723,95.679123 
	C151.311646,72.297615 181.193192,54.948017 213.533737,41.430603 
	C235.437881,32.275311 258.244690,26.045044 281.363342,21.192656 
	C297.195557,17.869621 313.364166,16.014507 329.453339,14.098705 
	C339.946289,12.849261 350.591339,11.833772 361.125305,12.148817 
	C412.361481,13.681162 460.975342,25.459265 506.628967,49.392807 
	C526.532104,59.826885 545.539795,71.403824 563.470581,85.478012 
M329.570862,524.462158 
	C329.889496,523.543396 330.438751,522.636169 330.485565,521.703735 
	C330.658386,518.260681 331.301147,514.546631 327.706055,512.280640 
	C324.191589,510.065399 320.518372,510.512787 317.551392,513.100708 
	C314.865814,515.443237 312.325958,518.179077 310.462341,521.198547 
	C302.537720,534.038086 300.558197,548.287476 301.494720,563.046082 
	C301.823944,568.233948 299.287598,571.367615 295.192474,574.154785 
	C294.695221,572.871277 294.328613,571.830750 293.893463,570.819702 
	C292.653809,567.939392 290.925751,565.874146 287.429535,567.539978 
	C284.467163,568.951477 281.602173,569.880127 283.107300,574.728027 
	C285.550385,582.597046 285.107300,582.735840 277.833405,586.824707 
	C277.401642,587.067383 276.871704,587.188721 276.519409,587.510803 
	C274.594574,589.270630 272.182281,590.759583 274.394257,594.046326 
	C276.194916,596.721985 278.013367,598.715820 281.479492,596.991394 
	C283.498505,595.987061 285.464752,594.876770 287.857483,593.598999 
	C288.456818,595.862610 289.064697,597.687622 289.416443,599.560669 
	C292.549805,616.246094 295.487823,632.969666 298.781128,649.623169 
	C302.162323,666.720947 305.666870,683.800537 309.533569,700.793457 
	C311.546753,709.640747 314.298431,718.335266 317.100403,726.974304 
	C317.635254,728.623413 319.959076,730.731995 321.471924,730.743530 
	C323.117249,730.756165 325.327637,728.889709 326.279938,727.253601 
	C327.232605,725.616821 327.380493,723.186646 327.090820,721.220703 
	C326.524323,717.375732 325.346710,713.624939 324.528076,709.812439 
	C316.195801,671.007507 307.892120,632.196411 299.562347,593.390930 
	C297.811768,585.235596 298.450623,583.730774 305.309448,579.555542 
	C308.864441,583.157471 311.842987,587.350647 315.843536,590.001221 
	C326.451233,597.029419 336.997223,594.444275 346.907043,588.043579 
	C351.284637,585.216125 355.223114,581.708801 359.010498,578.781006 
	C363.437469,584.326721 367.780060,589.666443 371.969666,595.123535 
	C372.597626,595.941528 372.966888,597.443726 372.685883,598.404114 
	C360.824707,638.938965 351.591003,680.246460 337.025238,719.990295 
	C336.426208,721.624817 336.085022,723.725525 336.594116,725.294067 
	C337.146820,726.997070 338.583679,728.797607 340.132690,729.634460 
	C340.935242,730.067993 343.045380,728.768799 344.146423,727.784546 
	C345.456635,726.613159 346.757904,725.086365 347.300476,723.459229 
	C350.327057,714.383240 353.273132,705.274475 355.969910,696.095520 
	C364.827423,665.947205 373.643402,635.786011 382.245789,605.564392 
	C383.251038,602.032837 384.651367,601.139526 388.224518,600.825928 
	C392.457733,600.454407 396.933167,599.231201 400.606232,597.147644 
	C403.999329,595.222961 403.613312,591.491333 400.008728,589.921753 
	C396.415649,588.357239 392.294281,588.006165 388.216949,587.080505 
	C388.890625,584.701965 389.843109,581.785217 390.528290,578.807007 
	C391.391693,575.053955 388.947693,573.349487 385.958618,572.212891 
	C383.038086,571.102234 381.415771,572.677734 380.135284,575.116455 
	C379.168884,576.957031 377.940674,578.660217 376.747681,580.553589 
	C374.565887,577.514099 372.632843,574.853699 370.735168,572.168274 
	C368.776154,569.396057 368.784119,567.194519 370.860626,563.928284 
	C379.403442,550.490845 385.421539,536.123047 384.608521,519.658264 
	C384.302551,513.461487 379.873962,510.613647 373.935608,512.684875 
	C368.498840,514.581238 365.163696,518.366089 362.774384,523.236206 
	C356.926453,535.156006 354.827881,547.805725 355.340942,561.017578 
	C355.421936,563.102356 354.854675,565.908997 353.480408,567.233521 
	C347.377655,573.115356 340.649536,578.224976 332.231506,580.484436 
	C326.527008,582.015564 322.146088,579.471130 318.641907,575.443176 
	C314.164398,570.296509 313.855560,566.627930 316.629700,561.497803 
	C318.594574,557.864197 321.029205,554.371887 322.308807,550.503845 
	C325.048676,542.221375 327.175995,533.736267 329.570862,524.462158 
z"/>
<path fill="#FEFEFE" opacity="1.000000" stroke="none" 
	d="
M217.000000,878.997986 
	C208.334641,878.997986 200.138824,879.422729 192.015274,878.840027 
	C187.074234,878.485596 181.952240,877.228821 177.437393,875.204468 
	C171.486603,872.536377 172.456970,866.083862 171.586945,860.883423 
	C171.153076,858.289856 171.500046,855.564087 171.509247,852.898254 
	C171.530457,846.754272 174.628754,842.473083 180.485184,841.155090 
	C183.673264,840.437622 187.006317,840.049866 190.274323,840.047852 
	C283.259308,839.990906 376.244354,840.002014 469.229370,840.002014 
	C471.185059,840.002014 473.140747,840.002014 475.609772,840.002014 
	C475.609772,828.466675 475.323792,817.342773 475.692200,806.240601 
	C476.042786,795.675049 476.744141,785.095337 477.905090,774.589722 
	C479.035400,764.360718 480.908783,754.212219 482.517487,744.038147 
	C486.586945,718.301086 491.658600,692.802307 501.639099,668.575989 
	C507.023987,655.504822 512.829529,642.607178 518.238647,629.545776 
	C521.581421,621.473999 527.609131,615.967346 534.450745,610.997620 
	C554.968384,596.093750 572.629944,578.409180 586.507874,557.076294 
	C587.356201,555.772278 588.514832,554.670105 589.528992,553.473999 
	C589.992493,553.690857 590.455933,553.907776 590.919373,554.124634 
	C588.695129,561.645874 587.301208,569.546082 584.077148,576.611145 
	C576.939392,592.252625 568.413513,607.262573 561.329224,622.926025 
	C553.988953,639.155396 546.642761,655.516235 541.178284,672.426880 
	C533.772705,695.344849 527.491943,718.685181 521.988037,742.139832 
	C517.802612,759.976135 514.947510,778.193298 512.656067,796.386536 
	C510.222961,815.704834 509.686401,835.260437 507.309631,854.587891 
	C505.579468,868.656982 497.711029,878.752686 480.455109,878.828430 
	C395.470856,879.201538 310.484100,878.997986 225.498245,878.997986 
	C222.832169,878.997986 220.166077,878.997986 217.000000,878.997986 
z"/>
<path fill="#FEFEFE" opacity="1.000000" stroke="none" 
	d="
M400.000000,905.002625 
	C426.148712,905.002625 451.797699,905.065430 477.446045,904.969238 
	C486.698944,904.934570 493.284637,909.664124 492.494080,919.961609 
	C492.099152,925.105347 492.970306,930.138489 490.096619,935.253296 
	C485.955750,942.623596 479.783203,944.950500 472.220062,944.958984 
	C411.096436,945.027344 349.972717,944.997253 288.849030,944.997253 
	C258.870819,944.997192 228.892624,945.001221 198.914429,944.986633 
	C197.261536,944.985840 195.609543,944.786438 193.955688,944.753906 
	C185.376831,944.585327 182.772385,938.770813 182.700058,931.728516 
	C182.635223,925.414551 183.319061,918.965942 184.752426,912.828918 
	C185.292252,910.517639 188.593506,907.859009 191.113571,907.208130 
	C196.454010,905.828796 202.107132,905.100403 207.634109,905.088745 
	C271.589203,904.953796 335.544647,905.002625 400.000000,905.002625 
z"/>
<path fill="##FEFEFE" opacity="1.000000" stroke="none" 
	d="
M234.105347,974.002563 
	C301.697296,974.002563 368.805084,973.908997 435.911499,974.170288 
	C441.623322,974.192505 447.570190,975.977173 452.922180,978.143127 
	C455.330902,979.117981 457.547272,982.860779 458.072662,985.679199 
	C458.941559,990.340515 458.881226,995.335693 458.274963,1000.070129 
	C457.539764,1005.811340 451.730621,1009.868774 445.218323,1009.978149 
	C439.724701,1010.070374 434.228302,1009.997437 428.733154,1009.997437 
	C362.291870,1009.997559 295.850586,1010.002258 229.409302,1009.991699 
	C221.217499,1009.990417 216.627106,1005.403259 216.518173,997.180664 
	C216.478470,994.183777 216.511703,991.186035 216.511719,988.188660 
	C216.511765,978.664246 221.135437,974.016113 230.623428,974.002808 
	C231.622559,974.001404 232.621689,974.002563 234.105347,974.002563 
z"/>
<path fill="#FEFEFE" opacity="1.000000" stroke="none" 
	d="
M350.361877,1081.265259 
	C340.842316,1081.271973 331.659637,1081.967529 322.717316,1080.808594 
	C311.074310,1079.299683 299.391968,1077.098511 288.144714,1073.778564 
	C273.408051,1069.428711 260.160217,1061.821167 249.556381,1050.420898 
	C245.150803,1045.684326 240.703690,1040.659546 240.479111,1033.229736 
	C242.095795,1033.141968 243.385803,1033.010742 244.675797,1033.010620 
	C304.604645,1033.003296 364.533508,1033.005127 424.462372,1033.013672 
	C431.185638,1033.014648 431.178375,1033.466675 428.815033,1039.488159 
	C423.162109,1053.890503 411.528595,1062.209351 398.626312,1068.685669 
	C383.695160,1076.180176 367.639282,1080.414307 350.361877,1081.265259 
z"/>
<path fill="#000000" opacity="1.000000" stroke="none" 
	d="
M329.562500,524.898132 
	C327.175995,533.736267 325.048676,542.221375 322.308807,550.503845 
	C321.029205,554.371887 318.594574,557.864197 316.629700,561.497803 
	C313.855560,566.627930 314.164398,570.296509 318.641907,575.443176 
	C322.146088,579.471130 326.527008,582.015564 332.231506,580.484436 
	C340.649536,578.224976 347.377655,573.115356 353.480408,567.233521 
	C354.854675,565.908997 355.421936,563.102356 355.340942,561.017578 
	C354.827881,547.805725 356.926453,535.156006 362.774384,523.236206 
	C365.163696,518.366089 368.498840,514.581238 373.935608,512.684875 
	C379.873962,510.613647 384.302551,513.461487 384.608521,519.658264 
	C385.421539,536.123047 379.403442,550.490845 370.860626,563.928284 
	C368.784119,567.194519 368.776154,569.396057 370.735168,572.168274 
	C372.632843,574.853699 374.565887,577.514099 376.747681,580.553589 
	C377.940674,578.660217 379.168884,576.957031 380.135284,575.116455 
	C381.415771,572.677734 383.038086,571.102234 385.958618,572.212891 
	C388.947693,573.349487 391.391693,575.053955 390.528290,578.807007 
	C389.843109,581.785217 388.890625,584.701965 388.216949,587.080505 
	C392.294281,588.006165 396.415649,588.357239 400.008728,589.921753 
	C403.613312,591.491333 403.999329,595.222961 400.606232,597.147644 
	C396.933167,599.231201 392.457733,600.454407 388.224518,600.825928 
	C384.651367,601.139526 383.251038,602.032837 382.245789,605.564392 
	C373.643402,635.786011 364.827423,665.947205 355.969910,696.095520 
	C353.273132,705.274475 350.327057,714.383240 347.300476,723.459229 
	C346.757904,725.086365 345.456635,726.613159 344.146423,727.784546 
	C343.045380,728.768799 340.935242,730.067993 340.132690,729.634460 
	C338.583679,728.797607 337.146820,726.997070 336.594116,725.294067 
	C336.085022,723.725525 336.426208,721.624817 337.025238,719.990295 
	C351.591003,680.246460 360.824707,638.938965 372.685883,598.404114 
	C372.966888,597.443726 372.597626,595.941528 371.969666,595.123535 
	C367.780060,589.666443 363.437469,584.326721 359.010498,578.781006 
	C355.223114,581.708801 351.284637,585.216125 346.907043,588.043579 
	C336.997223,594.444275 326.451233,597.029419 315.843536,590.001221 
	C311.842987,587.350647 308.864441,583.157471 305.309448,579.555542 
	C298.450623,583.730774 297.811768,585.235596 299.562347,593.390930 
	C307.892120,632.196411 316.195801,671.007507 324.528076,709.812439 
	C325.346710,713.624939 326.524323,717.375732 327.090820,721.220703 
	C327.380493,723.186646 327.232605,725.616821 326.279938,727.253601 
	C325.327637,728.889709 323.117249,730.756165 321.471924,730.743530 
	C319.959076,730.731995 317.635254,728.623413 317.100403,726.974304 
	C314.298431,718.335266 311.546753,709.640747 309.533569,700.793457 
	C305.666870,683.800537 302.162323,666.720947 298.781128,649.623169 
	C295.487823,632.969666 292.549805,616.246094 289.416443,599.560669 
	C289.064697,597.687622 288.456818,595.862610 287.857483,593.598999 
	C285.464752,594.876770 283.498505,595.987061 281.479492,596.991394 
	C278.013367,598.715820 276.194916,596.721985 274.394257,594.046326 
	C272.182281,590.759583 274.594574,589.270630 276.519409,587.510803 
	C276.871704,587.188721 277.401642,587.067383 277.833405,586.824707 
	C285.107300,582.735840 285.550385,582.597046 283.107300,574.728027 
	C281.602173,569.880127 284.467163,568.951477 287.429535,567.539978 
	C290.925751,565.874146 292.653809,567.939392 293.893463,570.819702 
	C294.328613,571.830750 294.695221,572.871277 295.192474,574.154785 
	C299.287598,571.367615 301.823944,568.233948 301.494720,563.046082 
	C300.558197,548.287476 302.537720,534.038086 310.462341,521.198547 
	C312.325958,518.179077 314.865814,515.443237 317.551392,513.100708 
	C320.518372,510.512787 324.191589,510.065399 327.706055,512.280640 
	C331.301147,514.546631 330.658386,518.260681 330.485565,521.703735 
	C330.438751,522.636169 329.889496,523.543396 329.562500,524.898132 
M370.400116,531.996216 
	C369.298096,536.769043 368.196045,541.541809 367.094025,546.314636 
	C367.694305,546.472046 368.294617,546.629395 368.894897,546.786804 
	C371.131165,539.879578 373.367462,532.972351 375.603729,526.065125 
	C374.987457,525.840088 374.371155,525.615051 373.754883,525.390076 
	C372.737305,527.352234 371.719757,529.314453 370.400116,531.996216 
M313.235168,538.634644 
	C312.587067,541.246704 311.938965,543.858765 311.290833,546.470825 
	C311.738068,546.575745 312.185303,546.680603 312.632538,546.785461 
	C316.061005,540.492920 319.047607,534.068604 317.840820,526.365845 
	C316.329559,530.188477 314.818268,534.011047 313.235168,538.634644 
z"/>
<path fill="#FEFEFE" opacity="1.000000" stroke="none" 
	d="
M370.551147,531.636414 
	C371.719757,529.314453 372.737305,527.352234 373.754883,525.390076 
	C374.371155,525.615051 374.987457,525.840088 375.603729,526.065125 
	C373.367462,532.972351 371.131165,539.879578 368.894897,546.786804 
	C368.294617,546.629395 367.694305,546.472046 367.094025,546.314636 
	C368.196045,541.541809 369.298096,536.769043 370.551147,531.636414 
z"/>
<path fill="#FEFEFE" opacity="1.000000" stroke="none" 
	d="
M313.271088,538.234131 
	C314.818268,534.011047 316.329559,530.188477 317.840820,526.365845 
	C319.047607,534.068604 316.061005,540.492920 312.632538,546.785461 
	C312.185303,546.680603 311.738068,546.575745 311.290833,546.470825 
	C311.938965,543.858765 312.587067,541.246704 313.271088,538.234131 
z"/>
</svg>